<?xml version="1.0" encoding="iso-8859-1"?>
<!-- Uploaded to: SVG Repo, www.svgrepo.com, Generator: SVG Repo Mixer Tools -->
<!DOCTYPE svg PUBLIC "-//W3C//DTD SVG 1.1//EN" "http://www.w3.org/Graphics/SVG/1.1/DTD/svg11.dtd">
<svg fill="#000000" height="800px" width="800px" version="1.1" id="Capa_1" xmlns="http://www.w3.org/2000/svg" xmlns:xlink="http://www.w3.org/1999/xlink"
	 viewBox="0 0 286.32 286.32" xml:space="preserve">
<path d="M277.849,43.574c-7.457-7.457-17.972-9.986-27.508-7.596c2.39-9.536-0.139-20.051-7.596-27.508
	c-11.294-11.294-29.604-11.294-40.898,0c-4.538,4.538-7.252,10.209-8.142,16.102c-3.76,24.893-15.374,47.972-33.176,65.773
	c-7.934,7.934-62.056,62.056-70.185,70.185c-17.802,17.802-40.88,29.416-65.773,33.176c-5.893,0.89-11.564,3.604-16.102,8.142
	c-11.294,11.294-11.294,29.604,0,40.898c7.457,7.457,17.972,9.986,27.508,7.596c-2.39,9.536,0.139,20.051,7.596,27.508
	c11.294,11.294,29.604,11.294,40.898,0c4.538-4.538,7.252-10.209,8.142-16.102c3.772-24.973,15.317-47.915,33.176-65.773
	c8.119-8.119,62.251-62.251,70.185-70.185c17.859-17.859,40.8-29.404,65.773-33.176c5.893-0.89,11.564-3.604,16.102-8.142
	C289.143,73.178,289.143,54.868,277.849,43.574z M32.303,215.83c-4.411,0-8,3.589-8,8c0,4.143-3.357,7.5-7.5,7.5
	c-4.143,0-7.5-3.357-7.5-7.5c0-12.683,10.317-23,23-23c4.143,0,7.5,3.357,7.5,7.5C39.803,212.472,36.445,215.83,32.303,215.83z
	 M58.042,211.703c-2.929,2.929-7.678,2.929-10.607,0c-2.929-2.929-2.929-7.678,0-10.606c2.929-2.929,7.678-2.929,10.607,0
	C60.971,204.026,60.971,208.774,58.042,211.703z"/>
</svg>
