<?xml version="1.0" encoding="utf-8"?>
<!-- Svg Vector Icons : http://www.onlinewebfonts.com/icon -->
<!DOCTYPE svg PUBLIC "-//W3C//DTD SVG 1.1//EN" "http://www.w3.org/Graphics/SVG/1.1/DTD/svg11.dtd">
<svg version="1.1" xmlns="http://www.w3.org/2000/svg" xmlns:xlink="http://www.w3.org/1999/xlink" x="0px" y="0px" viewBox="0 0 1000 1000" enable-background="new 0 0 1000 1000" xml:space="preserve">
<metadata> Svg Vector Icons : http://www.onlinewebfonts.com/icon </metadata>
<g><g transform="translate(0.000000,512.000000) scale(0.100000,-0.100000)"><path d="M9566.7,4836.5c-1976-1177.2-4397.5-2506-4808.5-2638.5c-124.8-40.3-144-42.2-188.2-17.3c-28.8,15.4-67.2,63.4-90.3,105.6c-78.7,153.6-25,487.8,132.5,831.5c38.4,78.7,65.3,145.9,63.4,149.8C4662.2,3279.1,1096.2,260.4,934.9,101C522-306.1,245.5-830.4,136-1419.9c-48-257.3-48-770.1,0-1017.8C368.4-3622.5,1255.6-4509.7,2442.3-4744c240-48,777.7-48,1017.8-1.9c660.6,130.6,1248.2,464.7,1657.2,946.7c63.4,73,891,1167.6,1837.8,2429.2L8677.6,922.9l-257.3,9.6c-230.4,9.6-265,15.4-366.8,63.4c-119.1,59.5-167.1,122.9-167.1,224.7c0,251.6,664.4,1522.8,1734.1,3322.2c147.9,247.7,272.7,457,276.5,466.6C9914.3,5040,9862.5,5013.2,9566.7,4836.5z M3435.1,70.2c462.8-121,841.1-364.9,1121.5-720.1c558.8-704.8,591.5-1678.4,82.6-2435c-257.3-382.1-733.6-708.6-1198.3-823.8c-201.6-49.9-570.3-67.2-779.7-38.4c-810.4,119-1471,710.5-1689.9,1517c-57.6,211.3-73,666.4-28.8,887.2c172.8,850.7,806.5,1478.7,1657.2,1640C2811,137.5,3237.3,124,3435.1,70.2z"/></g></g>
</svg>
